<?xml version="1.0" encoding="utf-8"?>
<!DOCTYPE svg PUBLIC "-//W3C//DTD SVG 1.1//EN" "http://www.w3.org/Graphics/SVG/1.1/DTD/svg11.dtd">
<svg version="1.1" xmlns="http://www.w3.org/2000/svg" xmlns:xlink="http://www.w3.org/1999/xlink" x="0px" y="0px" width="1024px" height="1024px" viewBox="0 0 1024 1024" enable-background="new 0 0 1024 1024" xml:space="preserve">
<metadata> Free Icon Download -- www.onlinewebfonts.com </metadata>

  <path d="M679.802262 234.495732c79.2039 0 143.577023 61.797461 143.577023 137.786133 0 202.994274-225.75772 353.566618-311.020616 403.109987-85.36318-49.54337-311.119877-200.115714-311.119877-403.109987 0-75.988672 64.405869-137.786133 143.609769-137.786133 43.518143 0 84.189448 18.680455 111.639636 51.28606 13.623275 16.200984 36.857443 25.640983 55.870472 25.640983 21.692045 0 42.179658-9.441023 55.769165-25.640983C595.580069 253.176187 636.317888 234.495732 679.802262 234.495732M679.802262 165.604712c-67.687612 0-128.009466 30.05962-167.443593 76.859505-39.568181-46.798862-99.82352-76.859505-167.510108-76.859505-118.971625 0-215.381395 92.526323-215.381395 206.677153 0 275.634688 334.988494 459.415364 382.891504 482.378355 47.836495-22.961968 382.823965-206.742644 382.823965-482.378355C895.183657 258.131035 798.773887 165.604712 679.802262 165.604712" />


</svg>